<mxfile host="app.diagrams.net" modified="2023-12-28T14:53:59.130Z" agent="Mozilla/5.0 (Windows NT 10.0; Win64; x64) AppleWebKit/537.36 (KHTML, like Gecko) Chrome/117.0.0.0 Safari/537.36 Edg/117.0.2045.31" version="22.1.15" etag="J3M_VrAhV4xFb82Mcvuy" type="github">
  <diagram name="Page-1" id="ApaRAWdy9CBrbyVMFFOO">
    <mxGraphModel>
      <root>
        <mxCell id="0" />
        <mxCell id="1" parent="0" />
      </root>
    </mxGraphModel>
  </diagram>
</mxfile>
